<svg xmlns="http://www.w3.org/2000/svg" width="900" height="900" viewBox="0 0 900 900">
  <rect width="900" height="900" fill="#071321"/>
  <rect x="60" y="60" width="780" height="780" rx="42" fill="#0f172a" stroke="#3b82f6" stroke-width="4"/>
  <circle cx="690" cy="250" r="180" fill="#2563eb" opacity="0.30"/>
  <circle cx="250" cy="290" r="140" fill="#38bdf8" opacity="0.25"/>
  <circle cx="460" cy="470" r="180" fill="#0ea5e9" opacity="0.20"/>
  <rect x="260" y="300" width="380" height="320" rx="28" fill="#111827" stroke="#60a5fa" stroke-width="4"/>
  <circle cx="450" cy="390" r="92" fill="#f1f5f9" opacity="0.95"/>
  <path d="M330 650c42-95 128-145 240-145 42 0 84 10 120 30v115H330z" fill="#f8fafc" opacity="0.95"/>
  <circle cx="450" cy="385" r="70" fill="#1e293b"/>
  <path d="M370 390c26-58 98-73 138-28 15 16 26 38 31 60-50 23-102 23-158-4 0-9-3-17-11-28z" fill="#f8fafc" opacity="0.92"/>
  <text x="450" y="770" text-anchor="middle" font-family="Georgia, serif" font-size="56" fill="#f8fafc">G. Bhanja</text>
</svg>